<svg xmlns="http://www.w3.org/2000/svg" width="700" height="200" viewBox="0 0 700 200" role="img" aria-labelledby="title desc">
  <title id="title">lingzhl GitHub profile details</title>
  <desc id="desc">46 GitHub contributions, 1 public repository, joined GitHub two years ago, and 65 stars. The contribution chart covers the last year.</desc>
  <style>
    .title { fill: #0366D6; font: 600 22px "Segoe UI", Ubuntu, "Helvetica Neue", sans-serif; }
    .label { fill: #586069; font: 14px "Segoe UI", Ubuntu, "Helvetica Neue", sans-serif; }
    .axis { fill: #586069; font: 10px sans-serif; }
  </style>
  <rect x="1" y="1" width="698" height="198" rx="5" fill="#FFFFFF" stroke="#E4E2E2"/>
  <text x="30" y="40" class="title">lingzhl (Lynn)</text>

  <g transform="translate(30 70)">
    <g fill="#586069">
      <circle cx="3" cy="8" r="2.5"/>
      <circle cx="13" cy="3" r="2.5"/>
      <circle cx="13" cy="13" r="2.5"/>
      <path d="M5 7l5.5-3M5 9l5.5 3" fill="none" stroke="#586069" stroke-width="1.5" stroke-linecap="round"/>
      <path d="M2 33h12l2 4v7H0v-7l2-4Zm1 0v-4h8v4M0 38h16" fill="none" stroke="#586069" stroke-width="1.5" stroke-linejoin="round"/>
      <path d="M8 53a7 7 0 1 0 0 14 7 7 0 0 0 0-14Zm0 3v5l3 2" fill="none" stroke="#586069" stroke-width="1.5" stroke-linecap="round" stroke-linejoin="round"/>
      <path d="M8 81 10.2 86l5.3.5-4 3.5 1.2 5.2L8 92.5l-4.7 2.7 1.2-5.2-4-3.5 5.3-.5Z" fill="none" stroke="#586069" stroke-width="1.1" stroke-linejoin="round"/>
    </g>
    <text x="24" y="13" class="label">46 Contributions on GitHub</text>
    <text x="24" y="41" class="label">1 Public Repo</text>
    <text x="24" y="69" class="label">Joined GitHub 2 years ago</text>
    <text x="24" y="97" class="label">Stars: 106</text>
  </g>

  <g transform="translate(295 50)">
    <path d="M0 110H380" fill="none" stroke="#586069" stroke-width="1"/>
    <path d="M0 0V110" fill="none" stroke="#586069" stroke-width="1"/>
    <path d="M0 110 L64 110 L128 110 L192 110 C210 110 224 70 242 0 C248 35 255 82 264 110 L316 110 C328 110 338 100 348 87 C360 71 370 50 380 37 L380 110 Z" fill="#ECFDED"/>
    <path d="M0 110 L64 110 L128 110 L192 110 C210 110 224 70 242 0 C248 35 255 82 264 110 L316 110 C328 110 338 100 348 87 C360 71 370 50 380 37" fill="none" stroke="#087F73" stroke-width="2" stroke-linecap="round" stroke-linejoin="round"/>
    <g class="axis" text-anchor="middle">
      <path d="M0 110v6M64 110v6M128 110v6M192 110v6M253 110v6M317 110v6M380 110v6" fill="none" stroke="#586069"/>
      <text x="0" y="126">25/08</text>
      <text x="64" y="126">25/10</text>
      <text x="128" y="126">25/12</text>
      <text x="192" y="126">26/02</text>
      <text x="253" y="126">26/04</text>
      <text x="317" y="126">26/06</text>
      <text x="380" y="126">26/08</text>
    </g>
    <g class="axis" text-anchor="start">
      <text x="8" y="113">0</text>
      <text x="8" y="68">12</text>
      <text x="8" y="8">24</text>
    </g>
    <text x="230" y="-15" class="axis">contributions in the last year</text>
  </g>
</svg>
